<svg width="64" height="64" viewBox="0 0 64 64" fill="none" xmlns="http://www.w3.org/2000/svg">
<path d="M26.4814 12.6295C20.4447 18.1948 24.0168 22.7308 25.345 24.541C25.345 24.541 22.5997 25.9968 21.6396 30.3304C20.8968 30.2394 14.9116 29.8819 11.9956 37.1577C11.9959 37.7454 12.3397 38.8069 13.7131 38.3508C15.4298 37.7808 14.4806 37.4409 15.2282 36.253C17.1719 33.1648 18.9801 32.8083 21.3972 32.6998C21.4192 34.7523 20.1509 43.5685 12.633 46.514C11.996 47.1008 11.3487 49.0943 13.6934 48.6384C16.8011 48.034 22.668 42.5962 23.2705 34.8393C23.998 25.4734 28.4265 26.2193 29.0077 25.2234C29.5889 24.2275 29.9552 22.6687 27.6127 23.4916C26.3841 21.9923 24.9721 19.532 29.1523 21.6859C31.5011 22.8962 33.9905 24.7195 36.1794 26.595L47.761 13.0111C41.3979 7.61947 33.5108 6.14908 26.4814 12.6295Z" fill="#7860F4"/>
<path d="M25.7008 30.5389C28.4913 29.4472 30.4988 28.3928 31.9856 26.5421C32.3872 26.071 34.0509 27.4877 33.6484 27.9598C28.8958 33.5341 25.1661 32.9303 25.1448 32.641C25.1236 32.3517 25.4554 30.8268 25.7008 30.5389Z" fill="#7860F4"/>
<path d="M51.4204 33.8924C46.8797 40.7332 41.8359 37.9232 39.8384 36.8981C39.8384 36.8981 38.8351 39.839 34.7078 41.4723C34.9151 42.1914 36.2146 48.0447 29.4914 52.0746C28.911 52.1673 27.8085 51.9956 28.0417 50.5674C28.3331 48.7821 28.8188 49.6657 29.8735 48.7396C32.6155 46.332 32.6817 44.4902 32.4066 42.0864C30.3764 42.3891 21.8717 45.0357 20.152 52.9247C19.6734 53.6465 17.8073 54.6009 17.8867 52.2136C17.9921 49.0494 22.4337 42.3964 29.9977 40.5749C39.1307 38.3755 37.694 34.1207 38.5854 33.3893C39.4769 32.658 40.9582 32.0498 40.516 34.493C42.1908 35.4689 44.8434 36.4742 42.0556 32.6872C40.4891 30.5593 38.2951 28.3895 36.097 26.5247L47.6786 12.9408C54.0086 18.3713 56.7077 25.9267 51.4204 33.8924Z" fill="#7860F4"/>
<path d="M33.8597 37.4952C34.4965 34.5671 35.2201 32.4182 36.8124 30.6574C37.2141 30.1863 35.5521 28.7676 35.1496 29.2397C30.397 34.814 31.583 38.4013 31.872 38.3766C32.161 38.3518 33.6143 37.7831 33.8597 37.4952Z" fill="#7860F4"/>
</svg>
